<svg width="15.582489" height="15.184937" viewBox="0 0 15.5825 15.1849" fill="none" xmlns="http://www.w3.org/2000/svg" xmlns:xlink="http://www.w3.org/1999/xlink">
	<desc>
			Created with Pixso.
	</desc>
	<defs/>
	<path id="icon/navigation/arrow_forward_24px" d="M1 8.59L12.17 8.59L7.29 13.47C6.89 13.86 6.89 14.5 7.29 14.89C7.67 15.28 8.31 15.28 8.7 14.89L15.29 8.3C15.68 7.91 15.68 7.28 15.29 6.89L8.7 0.29C8.52 0.1 8.26 0 8 0C7.74 0 7.48 0.1 7.29 0.29C6.91 0.68 6.91 1.31 7.29 1.7L12.17 6.59L1 6.59C0.45 6.59 0 7.04 0 7.59C0 8.14 0.45 8.59 1 8.59Z" fill="#7676B2" fill-opacity="1.000000" fill-rule="nonzero"/>
</svg>
