<svg width="24" height="24" viewBox="0 0 24 24" fill="#DADADA" xmlns="http://www.w3.org/2000/svg" xmlns:xlink="http://www.w3.org/1999/xlink">
	<desc>
			Created with Pixso.
	</desc>
	<defs/>
	<path id="icon/navigation" d="M1 2C0.449951 2 0 1.54999 0 1C0 0.450012 0.449951 0 1 0L17 0C17.55 0 18 0.450012 18 1C18 1.54999 17.55 2 17 2L1 2ZM1 7L17 7C17.55 7 18 6.54999 18 6C18 5.45001 17.55 5 17 5L1 5C0.449951 5 0 5.45001 0 6C0 6.54999 0.449951 7 1 7ZM1 12L17 12C17.55 12 18 11.55 18 11C18 10.45 17.55 10 17 10L1 10C0.449951 10 0 10.45 0 11C0 11.55 0.449951 12 1 12Z" clip-rule="evenodd" fill="#DADADA" fill-opacity="1.000000" fill-rule="evenodd"/>
</svg>
