<svg width="128.334869" height="34.350586" viewBox="0 0 128.335 34.3506" fill="none" xmlns="http://www.w3.org/2000/svg" xmlns:xlink="http://www.w3.org/1999/xlink">
	<desc>
			Created with Pixso.
	</desc>
	<defs/>
	<path id="team." d="M128.33 30.14C128.3 32.39 126.45 34.2 124.27 34.2C122.01 34.2 120.18 32.39 120.21 30.14C120.18 27.92 122.01 26.12 124.27 26.12C126.45 26.12 128.3 27.92 128.33 30.14Z" fill="#5468E7" fill-opacity="1.000000" fill-rule="evenodd"/>
	<path id="team." d="M10.29 6.53L15.67 6.53L15.67 11.49L10.29 11.49L10.29 25.59C10.29 28.18 11.59 28.75 13.2 28.75C14 28.75 14.73 28.6 15.08 28.51L16.17 33.53C15.47 33.76 14.22 34.11 12.39 34.17C7.55 34.31 3.83 31.79 3.86 26.66L3.86 11.49L0 11.49L0 6.53L3.86 6.53L3.86 0L10.29 0L10.29 6.53ZM43.7 26.48C42.56 31.22 38.19 34.33 31.85 34.33C23.62 34.33 18.6 28.88 18.6 20.32C18.6 11.91 23.69 6.17 31.5 6.17C38.22 6.17 43.97 10.37 43.97 19.94L43.97 21.92L24.97 21.92C25.02 26.58 27.78 29.32 31.93 29.32C34.7 29.32 36.83 28.12 37.7 25.8L43.7 26.48ZM64.25 30.05C63.08 32.34 60.53 34.35 56.24 34.35C51.04 34.35 47.13 31.5 47.13 26.14C47.13 20 52.18 18.42 57.48 17.85C62.29 17.34 64.23 17.24 64.23 15.4L64.23 15.29C64.23 12.62 62.59 11.09 59.6 11.09C56.46 11.09 54.66 12.69 54.01 14.55L48.02 13.69C49.43 8.72 53.84 6.17 59.56 6.17C64.78 6.17 70.65 8.33 70.65 15.55L70.65 33.8L64.47 33.8L64.47 30.05L64.25 30.05ZM82.56 33.8L76.14 33.8L76.14 6.53L82.28 6.53L82.28 11.15L82.59 11.15C83.73 8.05 86.46 6.17 90.12 6.17C93.8 6.17 96.45 8.06 97.49 11.15L97.78 11.15C98.99 8.12 102 6.17 105.96 6.17C110.96 6.17 114.48 9.39 114.48 15.49L114.48 33.8L108.03 33.8L108.03 16.49C108.03 13.11 105.98 11.58 103.38 11.58C100.28 11.58 98.45 13.72 98.45 16.79L98.45 33.8L92.15 33.8L92.15 16.22C92.15 13.41 90.28 11.58 87.56 11.58C84.79 11.58 82.56 13.86 82.56 17.21L82.56 33.8ZM31.59 11.18C27.76 11.18 25.18 14.11 24.98 17.59L37.8 17.59C37.77 13.87 35.29 11.18 31.59 11.18ZM53.31 26.03C53.31 28.4 55.24 29.62 57.92 29.62C61.79 29.62 64.24 27.05 64.24 24.02L64.24 20.8C63.41 21.48 60.03 21.89 58.34 22.13C55.46 22.54 53.31 23.57 53.31 26.03Z" fill="#F5F5F5" fill-opacity="1.000000" fill-rule="evenodd"/>
</svg>
